<?xml version="1.0" encoding="UTF-8"?>
<svg xmlns="http://www.w3.org/2000/svg" xmlns:xlink="http://www.w3.org/1999/xlink" width="24pt" height="24pt" viewBox="0 0 24 24" version="1.1">
<g id="surface1">
<path style=" stroke:none;fill-rule:nonzero;fill:#999999;fill-opacity:1;" d="M 11 1 C 8.800781 1 7 2.800781 7 5 L 7 17.5 C 7 20.527344 9.472656 23 12.5 23 C 15.527344 23 18 20.527344 18 17.5 L 18 6 L 16 6 L 16 17.5 C 16 19.445313 14.445313 21 12.5 21 C 10.554688 21 9 19.445313 9 17.5 L 9 5 C 9 3.882813 9.882813 3 11 3 C 12.117188 3 13 3.882813 13 5 L 13 15.5 C 13 15.785156 12.785156 16 12.5 16 C 12.214844 16 12 15.785156 12 15.5 L 12 6 L 10 6 L 10 15.5 C 10 16.867188 11.132813 18 12.5 18 C 13.867188 18 15 16.867188 15 15.5 L 15 5 C 15 2.800781 13.199219 1 11 1 Z "/>
</g>
</svg>
