<?xml version="1.0" encoding="UTF-8"?>
<svg xmlns="http://www.w3.org/2000/svg" xmlns:xlink="http://www.w3.org/1999/xlink" width="24pt" height="24pt" viewBox="0 0 24 24" version="1.1">
<g id="surface1">
<path style=" stroke:none;fill-rule:nonzero;fill:#999999;fill-opacity:1;" d="M 9 2 L 7 4 L 4 4 C 2.898438 4 2 4.898438 2 6 L 2 18 C 2 19.101563 2.898438 20 4 20 L 20 20 C 21.101563 20 22 19.101563 22 18 L 22 6 C 22 4.898438 21.101563 4 20 4 L 17 4 L 15 2 Z M 12 7 C 14.800781 7 17 9.199219 17 12 C 17 14.800781 14.800781 17 12 17 C 9.199219 17 7 14.800781 7 12 C 7 9.199219 9.199219 7 12 7 Z M 12 8.5 C 10.066406 8.5 8.5 10.066406 8.5 12 C 8.5 13.933594 10.066406 15.5 12 15.5 C 13.933594 15.5 15.5 13.933594 15.5 12 C 15.5 10.066406 13.933594 8.5 12 8.5 Z "/>
</g>
</svg>
