<?xml version="1.0" encoding="UTF-8"?>
<svg xmlns="http://www.w3.org/2000/svg" xmlns:xlink="http://www.w3.org/1999/xlink" width="24pt" height="24pt" viewBox="0 0 24 24" version="1.1">
<g id="surface1">
<path style=" stroke:none;fill-rule:nonzero;fill:#999999;fill-opacity:1;" d="M 12 2 C 6.476563 2 2 6.476563 2 12 C 2 17.523438 6.476563 22 12 22 C 17.523438 22 22 17.523438 22 12 C 22 6.476563 17.523438 2 12 2 Z M 12 4 C 16.417969 4 20 7.582031 20 12 C 20 16.417969 16.417969 20 12 20 C 7.582031 20 4 16.417969 4 12 C 4 7.582031 7.582031 4 12 4 Z M 8.5 8 C 7.671875 8 7 8.671875 7 9.5 C 7 10.328125 7.671875 11 8.5 11 C 9.328125 11 10 10.328125 10 9.5 C 10 8.671875 9.328125 8 8.5 8 Z M 15.5 8 C 14.671875 8 14 8.671875 14 9.5 C 14 10.328125 14.671875 11 15.5 11 C 16.328125 11 17 10.328125 17 9.5 C 17 8.671875 16.328125 8 15.5 8 Z M 6.890625 14 C 7.691406 16.039063 9.671875 17.5 12 17.5 C 14.328125 17.5 16.308594 16.039063 17.109375 14 Z "/>
</g>
</svg>
