<?xml version="1.0" encoding="UTF-8"?>
<svg xmlns="http://www.w3.org/2000/svg" xmlns:xlink="http://www.w3.org/1999/xlink" width="32pt" height="32pt" viewBox="0 0 32 32" version="1.1">
<g id="surface1">
<path style=" stroke:none;fill-rule:nonzero;fill:#40C351;fill-opacity:1;" d="M 23 8 C 20.320313 8 18.535156 9.164063 17.296875 10.441406 C 18.199219 11.644531 18.90625 12.90625 19.503906 14.003906 C 20.566406 12.585938 21.605469 12 23 12 C 25.207031 12 27 13.792969 27 16 C 27 18.207031 25.207031 20 23 20 C 20.601563 20 19.519531 18.222656 17.8125 15.074219 C 16.097656 11.921875 13.96875 8 9 8 C 4.589844 8 1 11.589844 1 16 C 1 20.410156 4.589844 24 9 24 C 11.679688 24 13.46875 22.804688 14.710938 21.496094 C 13.816406 20.289063 13.125 19.019531 12.539063 17.9375 C 12.527344 17.921875 12.519531 17.90625 12.511719 17.890625 C 11.421875 19.402344 10.40625 20 9 20 C 6.792969 20 5 18.207031 5 16 C 5 13.792969 6.792969 12 9 12 C 11.46875 12 12.566406 13.800781 14.296875 16.984375 C 15.992188 20.109375 18.105469 24 23 24 C 27.410156 24 31 20.410156 31 16 C 31 11.589844 27.410156 8 23 8 Z "/>
</g>
</svg>
