<?xml version="1.0" encoding="UTF-8"?>
<svg xmlns="http://www.w3.org/2000/svg" xmlns:xlink="http://www.w3.org/1999/xlink" width="24pt" height="24pt" viewBox="0 0 24 24" version="1.1">
<g id="surface1">
<path style=" stroke:none;fill-rule:nonzero;fill:#FFFFFF;fill-opacity:1;" d="M 10 5.34375 C 9.742188 5.34375 9.488281 5.441406 9.292969 5.636719 L 3.636719 11.292969 C 3.246094 11.683594 3.246094 12.316406 3.636719 12.707031 L 9.292969 18.363281 C 9.683594 18.753906 10.316406 18.753906 10.707031 18.363281 L 10.792969 18.277344 C 11.183594 17.886719 11.183594 17.253906 10.792969 16.863281 L 6.929688 13 L 20 13 C 20.550781 13 21 12.550781 21 12 C 21 11.449219 20.550781 11 20 11 L 6.929688 11 L 10.792969 7.136719 C 11.183594 6.746094 11.183594 6.113281 10.792969 5.722656 L 10.707031 5.636719 C 10.511719 5.441406 10.257813 5.34375 10 5.34375 Z "/>
</g>
</svg>
