<?xml version="1.0" encoding="UTF-8"?>
<svg xmlns="http://www.w3.org/2000/svg" xmlns:xlink="http://www.w3.org/1999/xlink" width="24pt" height="24pt" viewBox="0 0 24 24" version="1.1">
<g id="surface1">
<path style=" stroke:none;fill-rule:nonzero;fill:#FFFFFF;fill-opacity:1;" d="M 12 2 C 10.34375 2 9 3.34375 9 5 L 9 11 C 9 12.65625 10.34375 14 12 14 C 13.65625 14 15 12.65625 15 11 L 15 5 C 15 3.34375 13.65625 2 12 2 Z M 6.085938 11 C 5.480469 11 4.992188 11.539063 5.09375 12.136719 C 5.582031 15.136719 7.980469 17.488281 11 17.921875 L 11 20 C 11 20.550781 11.449219 21 12 21 C 12.550781 21 13 20.550781 13 20 L 13 17.921875 C 16.019531 17.488281 18.417969 15.136719 18.90625 12.136719 C 19.007813 11.539063 18.519531 11 17.910156 11 C 17.417969 11 17.011719 11.363281 16.925781 11.851563 C 16.523438 14.207031 14.472656 16 12 16 C 9.527344 16 7.476563 14.207031 7.070313 11.851563 C 6.988281 11.363281 6.582031 11 6.085938 11 Z "/>
</g>
</svg>
