<?xml version="1.0" encoding="UTF-8"?>
<svg xmlns="http://www.w3.org/2000/svg" xmlns:xlink="http://www.w3.org/1999/xlink" width="24pt" height="24pt" viewBox="0 0 24 24" version="1.1">
<g id="surface1">
<path style=" stroke:none;fill-rule:nonzero;fill:#2C8383;fill-opacity:1;" d="M 3 5 C 1.898438 5 1 5.898438 1 7 L 1 17 C 1 18.101563 1.898438 19 3 19 L 16 19 C 17.101563 19 18 18.101563 18 17 L 18 14.082031 L 21.375 16.78125 C 21.554688 16.925781 21.777344 17 22 17 C 22.148438 17 22.296875 16.964844 22.433594 16.902344 C 22.78125 16.734375 23 16.382813 23 16 L 23 8 C 23 7.617188 22.78125 7.265625 22.433594 7.097656 C 22.085938 6.933594 21.675781 6.980469 21.375 7.21875 L 18 9.917969 L 18 7 C 18 5.898438 17.101563 5 16 5 Z "/>
</g>
</svg>
