<?xml version="1.0" encoding="UTF-8"?>
<svg xmlns="http://www.w3.org/2000/svg" xmlns:xlink="http://www.w3.org/1999/xlink" width="30pt" height="30pt" viewBox="0 0 30 30" version="1.1">
<g id="surface1">
<path style=" stroke:none;fill-rule:nonzero;fill:#FFFFFF;fill-opacity:1;" d="M 1.972656 5.921875 C 0.882813 5.921875 0 6.804688 0 7.894531 L 0 21.710938 C 0 22.800781 0.882813 23.683594 1.972656 23.683594 L 18.75 23.683594 C 19.839844 23.683594 20.722656 22.800781 20.722656 21.710938 L 20.722656 7.894531 C 20.722656 6.804688 19.839844 5.921875 18.75 5.921875 Z M 28.617188 7.894531 C 28.359375 7.894531 28.113281 7.996094 27.929688 8.171875 L 22.699219 12.828125 L 22.699219 16.777344 L 27.953125 21.449219 L 27.96875 21.464844 C 28.148438 21.621094 28.378906 21.710938 28.617188 21.710938 C 29.160156 21.710938 29.605469 21.265625 29.605469 20.722656 L 29.605469 8.882813 C 29.605469 8.339844 29.160156 7.894531 28.617188 7.894531 Z "/>
</g>
</svg>
